<?xml version="1.0" encoding="utf-8"?>
<!-- Generator: Adobe Illustrator 26.2.1, SVG Export Plug-In . SVG Version: 6.00 Build 0)  -->
<svg version="1.1" id="svg8" xmlns="http://www.w3.org/2000/svg" xmlns:xlink="http://www.w3.org/1999/xlink" x="0px" y="0px"
	 viewBox="0 0 100 100" style="enable-background:new 0 0 100 100;" xml:space="preserve">
<style type="text/css">
	.st0{fill:#0055B8;}
	.st1{fill:none;stroke:#FFFFFF;stroke-width:6.5922;stroke-miterlimit:10;}
	.st2{fill:#FFFFFF;}
</style>
<path class="st0" d="M96.6,50c0,25.8-20.9,46.7-46.6,46.7C24.3,96.7,3.4,75.8,3.4,50C3.4,24.2,24.3,3.3,50,3.3
	C75.7,3.3,96.6,24.2,96.6,50"/>
<path class="st1" d="M96.6,50c0,25.8-20.9,46.7-46.6,46.7C24.3,96.7,3.4,75.8,3.4,50C3.4,24.2,24.3,3.3,50,3.3
	C75.7,3.3,96.6,24.2,96.6,50"/>
<path class="st2" d="M24.5,37.9V46c0,1.5,1.2,2.7,2.7,2.7V35.2C25.7,35.2,24.5,36.4,24.5,37.9"/>
<path class="st2" d="M72.8,35.2v13.4c1.5,0,2.7-1.2,2.7-2.7v-8.1C75.5,36.4,74.3,35.2,72.8,35.2"/>
<path class="st2" d="M62.1,24.5H37.9c-4.4,0-8,3.6-8,8.1v32.2c0,2,1.1,3.7,2.7,4.6v2.1c0,2.2,1.8,4,4,4c2.2,0,4-1.8,4-4v-1.3h18.8
	v1.3c0,2.2,1.8,4,4,4c2.2,0,4-1.8,4-4v-2.1c1.6-0.9,2.7-2.7,2.7-4.6V32.5C70.1,28.1,66.5,24.5,62.1,24.5 M46,27.2H54
	c1.5,0,2.7,0.6,2.7,1.3s-1.2,1.3-2.7,1.3H46c-1.5,0-2.7-0.6-2.7-1.3S44.5,27.2,46,27.2 M35.2,64.8c-1.5,0-2.7-1.2-2.7-2.7
	c0-1.5,1.2-2.7,2.7-2.7c1.5,0,2.7,1.2,2.7,2.7C37.9,63.6,36.7,64.8,35.2,64.8 M64.8,64.8c-1.5,0-2.7-1.2-2.7-2.7
	c0-1.5,1.2-2.7,2.7-2.7c1.5,0,2.7,1.2,2.7,2.7C67.4,63.6,66.2,64.8,64.8,64.8 M67.4,54c0,1.5-1.2,2.7-2.7,2.7H35.2
	c-1.5,0-2.7-1.2-2.7-2.7V35.2c0-1.5,1.2-2.7,2.7-2.7h29.5c1.5,0,2.7,1.2,2.7,2.7V54z"/>
</svg>
