<?xml version="1.0" encoding="iso-8859-1"?>
<!-- Uploaded to: SVG Repo, www.svgrepo.com, Generator: SVG Repo Mixer Tools -->
<svg height="800px" width="800px" version="1.1" id="Layer_1" xmlns="http://www.w3.org/2000/svg" xmlns:xlink="http://www.w3.org/1999/xlink" 
	 viewBox="0 0 512 512" xml:space="preserve">
<path d="M256.216,105.816C149.432,103.96,50.552,161.92,0,256c50.312,94.104,149.088,152.104,255.784,150.184
	C362.568,408.04,461.448,350.08,512,256C461.688,161.896,362.912,103.896,256.216,105.816z"/>
<path style="fill:#999999;" d="M256,373.184C191.28,373.192,138.808,320.72,138.8,256s52.464-117.192,117.184-117.2
	s117.192,52.464,117.2,117.184c0,0.008,0,0.008,0,0.016C373.112,320.688,320.688,373.112,256,373.184z M256,146.784
	c-60.304-0.008-109.192,48.88-109.2,109.184s48.88,109.192,109.184,109.2c60.296,0.008,109.184-48.872,109.2-109.168
	C365.12,195.728,316.272,146.88,256,146.808V146.784z"/>
<circle style="fill:#E21B1B;" cx="256" cy="256" r="95.32"/>
<circle style="fill:#FFFFFF;" cx="256" cy="256" r="64.56"/>
<circle cx="256" cy="256" r="32"/>
</svg>